<svg width="22" height="22" viewBox="0 0 22 22" fill="none" xmlns="http://www.w3.org/2000/svg">
<path fill-rule="evenodd" clip-rule="evenodd" d="M11 2C6.02944 2 2 6.02944 2 11C2 15.9706 6.02944 20 11 20C15.9706 20 20 15.9706 20 11C20 6.02944 15.9706 2 11 2ZM0 11C0 4.92487 4.92487 0 11 0C17.0751 0 22 4.92487 22 11C22 17.0751 17.0751 22 11 22C4.92487 22 0 17.0751 0 11Z" fill="#505050"/>
<path d="M14.4766 12.1406C14.4375 12.7266 14.2754 13.2441 13.9902 13.6934C13.709 14.1426 13.3145 14.4922 12.8066 14.7422C12.2988 14.9922 11.7031 15.1172 11.0195 15.1172C10.2891 15.1172 9.65625 14.9512 9.12109 14.6191C8.58594 14.2832 8.17578 13.8066 7.89062 13.1895C7.60938 12.5684 7.46875 11.8379 7.46875 10.998V10.4766C7.46875 9.64062 7.61523 8.91211 7.9082 8.29102C8.20117 7.66602 8.61523 7.18555 9.15039 6.84961C9.68555 6.51367 10.3105 6.3457 11.0254 6.3457C11.7246 6.3457 12.3242 6.47461 12.8242 6.73242C13.3242 6.99023 13.7109 7.34766 13.9844 7.80469C14.2617 8.25781 14.4277 8.7832 14.4824 9.38086H12.6484C12.6133 8.86523 12.4707 8.48242 12.2207 8.23242C11.9746 7.97852 11.5762 7.85156 11.0254 7.85156C10.4512 7.85156 10.0254 8.0625 9.74805 8.48438C9.4707 8.90625 9.33203 9.56641 9.33203 10.4648V10.998C9.33203 11.6035 9.38867 12.0977 9.50195 12.4805C9.61523 12.8594 9.79492 13.1426 10.041 13.3301C10.2871 13.5176 10.6133 13.6113 11.0195 13.6113C11.5469 13.6113 11.9395 13.4922 12.1973 13.2539C12.459 13.0117 12.6074 12.6406 12.6426 12.1406H14.4766Z" fill="#505050"/>
</svg>
